<?xml version="1.0" encoding="UTF-8" standalone="no"?>
<!-- Created with Inkscape (http://www.inkscape.org/) -->

<svg
   width="198.76988"
   height="198.76825"
   viewBox="0 0 55.572 55.571544"
   version="1.1"
   id="svg335"
   xml:space="preserve"
   sodipodi:docname="devlinks.svg"
   inkscape:version="1.2.2 (732a01da63, 2022-12-09)"
   xmlns:inkscape="http://www.inkscape.org/namespaces/inkscape"
   xmlns:sodipodi="http://sodipodi.sourceforge.net/DTD/sodipodi-0.dtd"
   xmlns="http://www.w3.org/2000/svg"
   xmlns:svg="http://www.w3.org/2000/svg"><sodipodi:namedview
     id="namedview337"
     pagecolor="#ffffff"
     bordercolor="#000000"
     borderopacity="0.25"
     inkscape:showpageshadow="2"
     inkscape:pageopacity="0.0"
     inkscape:pagecheckerboard="0"
     inkscape:deskcolor="#d1d1d1"
     inkscape:document-units="px"
     showgrid="false"
     inkscape:zoom="2.0490874"
     inkscape:cx="70.031177"
     inkscape:cy="104.43674"
     inkscape:window-width="1366"
     inkscape:window-height="705"
     inkscape:window-x="1358"
     inkscape:window-y="-8"
     inkscape:window-maximized="1"
     inkscape:current-layer="layer1" /><defs
     id="defs332" /><g
     inkscape:label="Camada 1"
     inkscape:groupmode="layer"
     id="layer1"
     transform="translate(-66.736219,-37.237692)"><g
       id="g5947"
       transform="translate(0.99977962,0.999772)"><path
         style="color:#000000;fill:#338000;stroke-width:1;stroke-linecap:round;-inkscape-stroke:none"
         d="m 93.522439,90.809692 a 4.4979148,4.1859814 0 0 1 -4.49805,-4.186105 V 63.78996 a 4.4979148,4.1859814 0 0 1 4.49805,-4.186104 4.4979148,4.1859814 0 0 1 4.49805,4.186104 v 22.833627 a 4.4979148,4.1859814 0 0 1 -4.49805,4.186105 z"
         id="path2160" /><path
         id="path1887"
         style="color:#000000;fill:#ffcc00;fill-opacity:1;stroke-width:1;stroke-linecap:round;-inkscape-stroke:none"
         inkscape:transform-center-x="12.26902"
         inkscape:transform-center-y="0.00079193743"
         d="m 93.524759,37.237692 c -1.24287,-5.7e-4 -2.25056,1.007101 -2.24999,2.249949 v 18.527196 c -0.13834,0.05194 -0.27485,0.108648 -0.40928,0.170011 L 77.763449,45.083574 c -0.4836,-0.484023 -1.16126,-0.721566 -1.84123,-0.645425 -0.50637,0.05675 -0.97846,0.283771 -1.33894,0.643875 -0.87943,0.878453 -0.87943,2.303721 0,3.182174 l 13.10101,13.100757 c -0.0615,0.134419 -0.11842,0.270923 -0.17053,0.409269 h -18.52755 c -1.24206,-5.7e-4 -2.24942,1.005841 -2.24999,2.247882 -5.7e-4,1.242849 1.00712,2.250519 2.24999,2.249949 h 18.52755 c 0.052,0.137992 0.10867,0.274151 0.17001,0.408236 l -13.10204,13.102308 c -0.87853,0.878132 -0.87877,2.302202 -5.2e-4,3.180623 0.87841,0.879065 2.30331,0.879065 3.18172,0 l 13.10256,-13.102308 c 0.83398,0.38075 1.73987,0.578452 2.65669,0.579799 0.91728,-7.9e-5 1.8239,-0.196729 2.65875,-0.576698 l 13.101011,13.100241 c 0.87795,0.878316 2.30165,0.878779 3.18017,10e-4 0.87908,-0.878395 0.87908,-2.303263 0,-3.181657 L 99.362649,66.684425 c 0.0616,-0.134758 0.11844,-0.271608 0.17053,-0.410303 l 18.526001,-5.17e-4 c 1.24207,2.88e-4 2.24919,-1.006355 2.24948,-2.248399 5.7e-4,-1.242852 -1.00712,-2.250524 -2.25,-2.249948 l -18.523931,5.16e-4 c -0.0521,-0.138868 -0.10896,-0.27589 -0.17053,-0.410819 L 112.46366,48.265231 c 0.87853,-0.878135 0.87876,-2.302206 5.1e-4,-3.180623 -0.48396,-0.484473 -1.16229,-0.722056 -1.84278,-0.645426 -0.50656,0.05718 -0.97867,0.284755 -1.33893,0.645426 L 96.183509,58.183815 c -0.13492,-0.06175 -0.27194,-0.118795 -0.41082,-0.171045 V 39.488158 c 8.6e-4,-1.242245 -1.00566,-2.249898 -2.24793,-2.250466 z m -0.001,0.999404 c 0.69032,1.53e-4 1.2499,0.559721 1.25005,1.250029 1.3e-4,0.690509 -0.55953,1.250392 -1.25005,1.250545 -0.69073,1.34e-4 -1.2507,-0.559833 -1.25057,-1.250545 1.5e-4,-0.690511 0.56005,-1.250163 1.25057,-1.250029 z m -17.49092,7.193737 c 0.37794,-0.04254 0.7547,0.08926 1.02371,0.358111 0.48852,0.488148 0.48874,1.279903 5.1e-4,1.768334 -0.48836,0.488706 -1.28052,0.488706 -1.76888,0 -0.48823,-0.488434 -0.488,-1.280189 5.2e-4,-1.768334 0.20033,-0.200204 0.46269,-0.326464 0.74414,-0.358111 z m 34.700721,10e-4 c 0.3782,-0.04257 0.7552,0.08944 1.02423,0.358628 0.48803,0.488231 0.48803,1.279587 0,1.767817 -0.4883,0.488367 -1.28007,0.488367 -1.76837,0 -0.48837,-0.488289 -0.48837,-1.280044 0,-1.768333 0.20033,-0.200205 0.46269,-0.326465 0.74414,-0.358112 z M 93.522179,59.603856 c 2.4411,7.1e-5 4.41994,1.978649 4.41988,4.419283 6e-5,2.440635 -1.97878,4.419214 -4.41988,4.419285 -2.4411,-6.6e-5 -4.41995,-1.978646 -4.41989,-4.419285 -6e-5,-2.440637 1.97879,-4.419217 4.41989,-4.419283 z m -24.53701,3.169254 c 0.69052,-1.34e-4 1.25042,0.559518 1.25057,1.250029 1.3e-4,0.690713 -0.55984,1.25068 -1.25057,1.250546 -0.69052,-1.53e-4 -1.25018,-0.560036 -1.25005,-1.250546 1.5e-4,-0.690308 0.55973,-1.249876 1.25005,-1.250029 z m 49.075041,10e-4 c 0.69053,1.48e-4 1.25019,0.560032 1.25006,1.250546 -1.5e-4,0.690312 -0.55973,1.249881 -1.25006,1.250029 -0.69052,1.28e-4 -1.25041,-0.559522 -1.25056,-1.250029 -1.3e-4,-0.690709 0.55984,-1.250674 1.25056,-1.250546 z M 76.031769,80.131374 c 0.37812,-0.0427 0.7551,0.08911 1.02423,0.358111 0.48837,0.48829 0.48837,1.280043 0,1.768333 -0.48844,0.488225 -1.28021,0.487993 -1.76837,-5.17e-4 -0.48803,-0.48823 -0.48803,-1.279585 0,-1.767816 0.20033,-0.200204 0.46269,-0.326465 0.74414,-0.358111 z m 34.700731,5.17e-4 c 0.37837,-0.04273 0.75559,0.08929 1.02474,0.358627 0.48823,0.488434 0.488,1.280188 -5.2e-4,1.768334 -0.48824,0.488021 -1.27961,0.488021 -1.76785,0 -0.48852,-0.488149 -0.48874,-1.279903 -5.1e-4,-1.768334 0.20025,-0.200393 0.46263,-0.32684 0.74414,-0.358627 z"
         sodipodi:nodetypes="sccccccccccsccccccccccccccccccccccccccssssssccccsccccccccccccssssssssssccccccsccccs" /></g></g></svg>
